<svg width="22" height="22" viewBox="0 0 22 22" fill="none" xmlns="http://www.w3.org/2000/svg">
<path d="M20.5886 18.902L16.0932 14.4067C17.1755 12.9659 17.7597 11.2121 17.7578 9.41014C17.7578 4.80728 14.013 1.0625 9.41014 1.0625C4.80728 1.0625 1.0625 4.80728 1.0625 9.41014C1.0625 14.013 4.80728 17.7578 9.41014 17.7578C11.2121 17.7597 12.9659 17.1755 14.4067 16.0932L18.902 20.5886C19.1296 20.792 19.4264 20.9006 19.7315 20.892C20.0366 20.8835 20.3268 20.7585 20.5427 20.5427C20.7585 20.3268 20.8835 20.0366 20.892 19.7315C20.9006 19.4264 20.792 19.1296 20.5886 18.902ZM3.44754 9.41014C3.44754 8.23085 3.79724 7.07804 4.45242 6.0975C5.1076 5.11695 6.03883 4.35271 7.12835 3.90141C8.21787 3.45012 9.41675 3.33204 10.5734 3.56211C11.73 3.79218 12.7924 4.36006 13.6263 5.19394C14.4602 6.02783 15.0281 7.09026 15.2582 8.24689C15.4882 9.40352 15.3702 10.6024 14.9189 11.6919C14.4676 12.7814 13.7033 13.7127 12.7228 14.3679C11.7422 15.023 10.5894 15.3727 9.41014 15.3727C7.82934 15.3708 6.31383 14.742 5.19604 13.6242C4.07825 12.5064 3.44944 10.9909 3.44754 9.41014Z" fill="white"/>
<circle cx="9.5" cy="9.5" r="1.5" fill="white"/>
</svg>
